Coordinates
version=1
nRows=13
nColumns=22
inDegrees=yes

Units are S.I. units (second, meters, Newtons, ...)
If the header above contains a line with 'inDegrees', this indicates whether rotational values are in degrees (yes) or radians (no).

endheader
time	pelvis_tilt	pelvis_list	pelvis_rotation	pelvis_tx	pelvis_ty	pelvis_tz	hip_flexion_r	hip_adduction_r	hip_rotation_r	knee_angle_r	ankle_angle_r	subtalar_angle_r	hip_flexion_l	hip_adduction_l	hip_rotation_l	knee_angle_l	ankle_angle_l	subtalar_angle_l	lumbar_extension	lumbar_bending	lumbar_rotation
      4.30000000	      0.02965551	      8.92209535	    -94.43632926	      0.27987757	      0.97936101	      1.21215929	     29.70652646	     -0.41309233	     -4.96913020	    -49.78794186	     19.88142744	     -4.60108076	     28.02903400	      2.02209696	     -1.60029394	    -24.76485537	     12.04955751	     -1.29950677	      0.04441635	      0.63219396	      3.61228249
      4.31000000	     -0.07538748	      8.99012491	    -94.54515827	      0.27918315	      0.97986003	      1.21561303	     30.07822361	     -0.22066448	     -4.71251598	    -48.40870742	     20.23089542	     -4.75451223	     27.84814687	      1.84852889	     -1.64509784	    -24.75006923	     12.27773294	     -1.32543190	      0.00129757	      0.72454063	      3.64257861
      4.32000000	     -0.18064880	      9.05008175	    -94.63926320	      0.27847089	      0.98033032	      1.21905186	     30.39985324	     -0.02170288	     -4.43793784	    -47.02626593	     20.59734373	     -4.88310690	     27.67117814	      1.67677260	     -1.70014166	    -24.75246284	     12.50785056	     -1.34673473	     -0.03522734	      0.81706342	      3.67257008
      4.33000000	     -0.29691790	      9.09056546	    -94.71988812	      0.27771066	      0.98080205	      1.22246747	     30.65631436	      0.20623810	     -4.12519379	    -45.64269203	     20.91530097	     -5.02329851	     27.48330319	      1.49988756	     -1.72895234	    -24.77210484	     12.74627506	     -1.36547679	     -0.08268434	      0.91774263	      3.69394192
      4.34000000	     -0.40538420	      9.13161420	    -94.77737171	      0.27693192	      0.98122471	      1.22588653	     30.87401908	      0.42610183	     -3.80987191	    -44.28165234	     21.24835118	     -5.10305046	     27.30609785	      1.33413876	     -1.76631383	    -24.80422374	     12.98103347	     -1.38175736	     -0.10984951	      1.00753556	      3.69863873
      4.35000000	     -0.52865523	      9.14278434	    -94.81159716	      0.27613593	      0.98166186	      1.22928333	     31.01346786	      0.67144960	     -3.46271387	    -42.93773940	     21.51068827	     -5.14842730	     27.10604697	      1.16546924	     -1.76558146	    -24.85061982	     13.22659415	     -1.39365088	     -0.16287350	      1.11354769	      3.69345865
      4.36000000	     -0.64423393	      9.15876872	    -94.81916540	      0.27531947	      0.98204138	      1.23269501	     31.11754329	      0.90550949	     -3.12538106	    -41.63398557	     21.75962062	     -5.11310222	     26.91941665	      1.00701998	     -1.77801313	    -24.90656106	     13.47213708	     -1.40477688	     -0.18729719	      1.20841066	      3.66858868
      4.37000000	     -0.76439308	      9.15242372	    -94.79994276	      0.27448584	      0.98241849	      1.23610812	     31.15254357	      1.14534433	     -2.78057750	    -40.37004282	     21.92521676	     -4.98228981	     26.71413186	      0.85449707	     -1.76208056	    -24.96968678	     13.72368064	     -1.41044411	     -0.22292969	      1.30589149	      3.62621013
      4.38000000	     -0.88147083	      9.12603063	    -94.75159595	      0.27363625	      0.98278441	      1.23952905	     31.12331686	      1.37609090	     -2.44795129	    -39.15859791	     22.00361406	     -4.73513108	     26.49178787	      0.71365386	     -1.73144522	    -25.03583202	     13.97949239	     -1.40957026	     -0.26289241	      1.39523651	      3.56478400
      4.39000000	     -0.96916652	      9.06100191	    -94.67260363	      0.27282396	      0.98316550	      1.24296336	     31.01903020	      1.56141219	     -2.12679576	    -38.02340717	     21.99619797	     -4.27956491	     26.22423202	      0.62331340	     -1.65774803	    -25.08641289	     14.21900582	     -1.39053496	     -0.32985425	      1.45054183	      3.47976936
      4.40000000	     -1.06620465	      9.04203335	    -94.58012675	      0.27197029	      0.98341044	      1.24640857	     30.92212493	      1.75733700	     -1.84546295	    -36.95332321	     21.82905539	     -3.94571628	     26.01964019	      0.51017146	     -1.62225119	    -25.16142011	     14.48180793	     -1.38478309	     -0.31608081	      1.52264713	      3.40544120
      4.41000000	     -1.13831974	      8.97803149	    -94.45708851	      0.27115025	      0.98367890	      1.24987378	     30.74225059	      1.90660058	     -1.60849511	    -35.96858925	     21.52162692	     -3.49701810	     25.76341103	      0.44084414	     -1.54987649	    -25.22298020	     14.73712739	     -1.36043185	     -0.33646529	      1.56629859	      3.30148806
      4.42000000	     -1.17129731	      8.89192788	    -94.31749046	      0.27033511	      0.98390954	      1.25334921	     30.51784888	      2.00662785	     -1.39583760	    -35.09437047	     21.10308647	     -3.00979701	     25.48181676	      0.42174062	     -1.44810139	    -25.27590157	     14.98915061	     -1.32046370	     -0.35836593	      1.56181174	      3.19255379
